<?xml version="1.0" encoding="utf-8"?>
<!-- Generator: Adobe Illustrator 24.3.0, SVG Export Plug-In . SVG Version: 6.00 Build 0)  -->
<svg version="1.0" id="Layer_1" xmlns="http://www.w3.org/2000/svg" xmlns:xlink="http://www.w3.org/1999/xlink" x="0px" y="0px"
	 viewBox="0 0 442 373" style="enable-background:new 0 0 442 373;" xml:space="preserve">
<style type="text/css">
	.st0{fill:#3C3B3A;}
</style>
<path id="Icon_map-gym" class="st0" d="M172.35,336.52c2.69,2.91,2.53,7.44-0.36,10.15l-15.57,14.55
	c-2.89,2.69-7.42,2.53-10.11-0.37l-90.64-97.69c-2.68-2.91-2.52-7.44,0.37-10.15l15.59-14.53c2.89-2.69,7.42-2.53,10.11,0.37
	L172.35,336.52z M288,152.72c2.68,2.91,2.52,7.44-0.37,10.15l-97.95,91.5c-2.89,2.69-7.42,2.53-10.11-0.37l-23.38-25.23
	c-2.68-2.91-2.52-7.44,0.37-10.15l97.93-91.5c2.89-2.69,7.41-2.52,10.1,0.37c0,0,0,0,0,0C264.59,127.49,288,152.72,288,152.72z
	 M205.67,305.37c2.68,2.91,2.52,7.44-0.37,10.15l-15.59,14.55c-2.89,2.69-7.42,2.53-10.11-0.37l-90.57-97.69
	c-2.69-2.91-2.53-7.44,0.36-10.15l15.55-14.54c2.89-2.69,7.42-2.53,10.11,0.37L205.67,305.37z M356.61,156.22
	c2.68,2.91,2.52,7.44-0.37,10.15l-15.58,14.55c-2.89,2.69-7.42,2.53-10.12-0.36L239.98,82.9c-2.69-2.91-2.53-7.44,0.36-10.15
	l15.63-14.58c2.89-2.69,7.41-2.52,10.1,0.37c0,0,0,0,0,0l90.57,97.7L356.61,156.22z M389.89,125.12c2.68,2.91,2.51,7.44-0.37,10.15
	l-15.56,14.55c-2.89,2.69-7.41,2.53-10.1-0.36c0,0,0,0,0,0l-90.59-97.68c-2.68-2.91-2.52-7.44,0.36-10.15l15.57-14.57
	c2.87-2.69,7.38-2.54,10.07,0.34c0.01,0.01,0.01,0.01,0.02,0.02L389.89,125.12z"/>
</svg>
