<?xml version="1.0" encoding="utf-8"?>
<!-- Generator: Adobe Illustrator 24.3.0, SVG Export Plug-In . SVG Version: 6.00 Build 0)  -->
<svg version="1.0" id="Layer_1" xmlns="http://www.w3.org/2000/svg" xmlns:xlink="http://www.w3.org/1999/xlink" x="0px" y="0px"
	 viewBox="0 0 327 349" style="enable-background:new 0 0 327 349;" xml:space="preserve">
<style type="text/css">
	.st0{fill:#3C3B3A;}
</style>
<path id="Icon_map-climbing" class="st0" d="M74.19,166.88c-1.57,3.23-2.38,6.76-2.38,10.35l0.88,55.5l-19.25,41.32
	c-3.26,6.09-0.96,13.67,5.13,16.93c6.02,3.22,13.5,1.02,16.83-4.94l21.18-45.14c0.48-1.07,0.81-2.2,0.99-3.36l0.11-1.7l-0.17-34.33
	l32.54,14.15l5.26,33.53c1.53,6.75,8.25,10.98,15,9.45c5-1.14,8.81-5.2,9.61-10.27c0.15-1.13,0.17-2.28,0.05-3.41l-6.41-40.5
	c-0.78-3.93-3.37-7.27-6.99-8.98l-29.08-12.87l18.52-32.1l9.19,11.63c0.97,1.08,2.18,1.93,3.53,2.48l35.01,10.17
	c5.31,1.16,10.55-2.2,11.71-7.51c1.02-4.67-1.47-9.4-5.9-11.21l-0.5-0.17l-30.41-8.9l-22.89-27.34c-3.54-3.77-8.24-6.26-13.35-7.06
	c-9.01-1.34-17.95,2.79-22.76,10.52L74.19,166.88z M174.64,246.45l-2.21,16.63l-60.22,14.59l0.57,10.28h146.85
	c5.17,0.02,9.38-4.15,9.41-9.32c0-0.01,0-0.02,0-0.03l-0.17-197.14l-20.12-4.68l-11.56,51.86l-19.33,8.07L200.7,184.5l16.34,36.57
	l-4.58,14.04L174.64,246.45z M133.75,110.16c10.31-0.04,18.64-8.44,18.59-18.75c-0.04-10.31-8.44-18.64-18.75-18.59
	c-10.28,0.04-18.6,8.39-18.59,18.68C115.04,101.82,123.43,110.17,133.75,110.16z M96.46,113.08c1.46-2.54,0.58-5.79-1.96-7.25
	c-0.01-0.01-0.02-0.01-0.03-0.02l-9.1-5.29c-2.58-1.46-5.86-0.58-7.36,1.98l-27.98,48.08c-1.47,2.54-0.6,5.8,1.94,7.27
	c0.02,0.01,0.03,0.02,0.05,0.03l9.13,5.24c2.54,1.48,5.8,0.63,7.3-1.91L96.46,113.08z"/>
</svg>
