<svg xmlns="http://www.w3.org/2000/svg" width="96" height="96" viewBox="0 0 96 96">
  <g id="Group_50" data-name="Group 50" transform="translate(-112 -1690)">
    <path id="Path_210" data-name="Path 210" d="M48,0A48,48,0,1,1,0,48,48,48,0,0,1,48,0Z" transform="translate(112 1690)" fill="#ce963b"/>
    <path id="palette-solid" d="M18.766.427A23.376,23.376,0,0,0,.488,18.64c-3.4,17.166,12.09,29.963,23.758,28.155,3.782-.588,5.636-5.012,3.9-8.418a6.211,6.211,0,0,1,5.591-9.033h7.316a6.006,6.006,0,0,0,5.958-5.994A23.518,23.518,0,0,0,18.766.427ZM8.824,29.344a2.938,2.938,0,1,1,2.938-2.938A2.934,2.934,0,0,1,8.824,29.344Zm2.938-11.75A2.938,2.938,0,1,1,14.7,14.656,2.934,2.934,0,0,1,11.761,17.593Zm11.75-5.875a2.938,2.938,0,1,1,2.938-2.938A2.934,2.934,0,0,1,23.512,11.718Zm11.75,5.875A2.938,2.938,0,1,1,38.2,14.656,2.934,2.934,0,0,1,35.262,17.593Z" transform="translate(134.649 1716.697)" fill="none" stroke="#fff" stroke-width="3"/>
  </g>
</svg>
