<svg xmlns="http://www.w3.org/2000/svg" width="52" height="52" viewBox="0 0 52 52">
  <g id="Group_29" data-name="Group 29" transform="translate(-922 -2194)">
    <circle id="Ellipse_6" data-name="Ellipse 6" cx="26" cy="26" r="26" transform="translate(922 2194)" fill="#ce963b"/>
    <g id="Component_13_59" data-name="Component 13 – 59" transform="translate(933.267 2205.268)">
      <path id="Path_3" data-name="Path 3" d="M14.733,2.619a45.174,45.174,0,0,1,5.893.164,7.593,7.593,0,0,1,2.783.491,5.749,5.749,0,0,1,2.783,2.783,7.593,7.593,0,0,1,.491,2.783c0,1.473.164,1.964.164,5.893a45.174,45.174,0,0,1-.164,5.893,7.593,7.593,0,0,1-.491,2.783,5.749,5.749,0,0,1-2.783,2.783,7.593,7.593,0,0,1-2.783.491c-1.473,0-1.964.164-5.893.164a45.174,45.174,0,0,1-5.893-.164,7.593,7.593,0,0,1-2.783-.491,5.749,5.749,0,0,1-2.783-2.783,7.593,7.593,0,0,1-.491-2.783c0-1.473-.164-1.964-.164-5.893A45.174,45.174,0,0,1,2.783,8.84a7.593,7.593,0,0,1,.491-2.783A5.879,5.879,0,0,1,4.42,4.42,2.768,2.768,0,0,1,6.057,3.274,7.593,7.593,0,0,1,8.84,2.783a45.174,45.174,0,0,1,5.893-.164m0-2.619A48.368,48.368,0,0,0,8.676.164a10.106,10.106,0,0,0-3.6.655A6.408,6.408,0,0,0,2.455,2.455,6.408,6.408,0,0,0,.818,5.075a7.459,7.459,0,0,0-.655,3.6A48.368,48.368,0,0,0,0,14.733,48.369,48.369,0,0,0,.164,20.79a10.106,10.106,0,0,0,.655,3.6A6.408,6.408,0,0,0,2.455,27.01a6.408,6.408,0,0,0,2.619,1.637,10.106,10.106,0,0,0,3.6.655,48.369,48.369,0,0,0,6.057.164A48.369,48.369,0,0,0,20.79,29.3a10.106,10.106,0,0,0,3.6-.655,6.868,6.868,0,0,0,4.256-4.256,10.106,10.106,0,0,0,.655-3.6c0-1.637.164-2.128.164-6.057A48.369,48.369,0,0,0,29.3,8.676a10.106,10.106,0,0,0-.655-3.6A6.408,6.408,0,0,0,27.01,2.455,6.408,6.408,0,0,0,24.391.818a10.106,10.106,0,0,0-3.6-.655A48.368,48.368,0,0,0,14.733,0m0,7.2a7.409,7.409,0,0,0-7.53,7.53,7.53,7.53,0,1,0,7.53-7.53m0,12.441a4.823,4.823,0,0,1-4.911-4.911,4.823,4.823,0,0,1,4.911-4.911,4.823,4.823,0,0,1,4.911,4.911,4.823,4.823,0,0,1-4.911,4.911M22.59,5.075a1.8,1.8,0,1,0,1.8,1.8,1.817,1.817,0,0,0-1.8-1.8" fill="#fff" fill-rule="evenodd"/>
    </g>
  </g>
</svg>
