<svg xmlns="http://www.w3.org/2000/svg" viewBox="0 0 118.99 122.95"><defs><style>.cls-1{fill:#fff;}</style></defs><g id="Layer_2" data-name="Layer 2"><g id="Layer_1-2" data-name="Layer 1"><path class="cls-1" d="M52.27,84.53H51.09l-.41-.19L2.4,45.3V83.87H0V23.1H1.18l.4.19L49.86,62.34V23.76h2.41Zm-50.53-42L50.53,82V65.11L1.74,25.65Z"/><path class="cls-1" d="M62,121.16A21.19,21.19,0,0,1,52.91,116a10.87,10.87,0,0,1-1.75-13.26l.59.33a9.76,9.76,0,0,0-1.42,5.17,10.13,10.13,0,0,0,3,7.3,19.75,19.75,0,0,0,8.55,4.8A43.49,43.49,0,0,0,74.51,122a26.1,26.1,0,0,0,11.88-2.5q5-2.5,5-7.5A7.31,7.31,0,0,0,89,106.57a20.1,20.1,0,0,0-5.88-3.84q-3.51-1.55-9.59-3.63-7.42-2.58-11.84-4.63A23.44,23.44,0,0,1,54.08,89a12.09,12.09,0,0,1-3.17-8.46,13.52,13.52,0,0,1,3.34-9.13,21.42,21.42,0,0,1,9.21-6,38.88,38.88,0,0,1,13.22-2.12,39.16,39.16,0,0,1,12,1.66,18.2,18.2,0,0,1,7.92,4.72,10.31,10.31,0,0,1,2.79,7.21,9.84,9.84,0,0,1-1.25,5l-.5-.25a10.49,10.49,0,0,0,1.08-4.75,9.71,9.71,0,0,0-2.58-6.71A16.46,16.46,0,0,0,89,65.71a32.59,32.59,0,0,0-10.43-1.55c-4.72,0-8.54.83-11.46,2.46a7.78,7.78,0,0,0-4.38,7.13A6.85,6.85,0,0,0,65.05,79a18.92,18.92,0,0,0,5.71,3.54q3.42,1.41,9.42,3.34a125,125,0,0,1,12,4.46A23,23,0,0,1,100,95.89a12.64,12.64,0,0,1,3.21,8.8,14.42,14.42,0,0,1-3.71,10.09,22.68,22.68,0,0,1-10,6.13,46.2,46.2,0,0,1-14.18,2A45.21,45.21,0,0,1,62,121.16Z"/><path class="cls-1" d="M113.08,98.62l-1.59-.7a68.83,68.83,0,0,0,5.59-32.36A68.59,68.59,0,0,0,43.85,1.91a68.39,68.39,0,0,0-35.62,13l-1-1.4a70.35,70.35,0,0,1,87.58,3.76,69.94,69.94,0,0,1,24,48.18A70.61,70.61,0,0,1,113.08,98.62Z"/></g></g></svg>