<svg id="Layer_1" data-name="Layer 1" xmlns="http://www.w3.org/2000/svg" viewBox="0 0 643.81 1733.98"><defs><style>.cls-1,.cls-26,.cls-30{fill:#82c5bf;}.cls-2{fill:#016d77;}.cls-11,.cls-3,.cls-30,.cls-39{font-size:48px;}.cls-11,.cls-20,.cls-28,.cls-3,.cls-31,.cls-33,.cls-39{fill:#231f20;}.cls-16,.cls-3{font-family:LustSans-Medium, Lust Sans;font-weight:500;}.cls-12,.cls-4{letter-spacing:-0.02em;}.cls-5{letter-spacing:-0.02em;}.cls-6{letter-spacing:0em;}.cls-18,.cls-7{letter-spacing:-0.02em;}.cls-11,.cls-30,.cls-8{font-family:LustSans-Bold, Lust Sans;font-weight:700;}.cls-9{letter-spacing:0em;}.cls-10,.cls-14{letter-spacing:-0.02em;}.cls-12,.cls-13,.cls-14,.cls-15,.cls-18,.cls-19{font-family:LustSans-Thin, Lust Sans;}.cls-12,.cls-13,.cls-14,.cls-15,.cls-17,.cls-18,.cls-19{font-weight:200;}.cls-15{letter-spacing:0em;}.cls-17{font-family:HeroNew-Thin, Hero New;}.cls-19{letter-spacing:0em;}.cls-21,.cls-23,.cls-24,.cls-38{fill:#fff;}.cls-21,.cls-24,.cls-35,.cls-36,.cls-37,.cls-38{stroke:#231f20;}.cls-21,.cls-22,.cls-24,.cls-25,.cls-27,.cls-29,.cls-35,.cls-36,.cls-37,.cls-38{stroke-miterlimit:10;}.cls-22,.cls-25,.cls-27,.cls-29,.cls-35,.cls-36,.cls-37{fill:none;}.cls-22,.cls-25,.cls-27,.cls-29{stroke:#82c5bf;}.cls-24,.cls-26,.cls-27,.cls-28{font-size:24px;font-family:LustSans-Regular, Lust Sans;}.cls-24{stroke-width:0.25px;}.cls-25{stroke-width:6.14px;}.cls-27{stroke-width:0.5px;}.cls-29{stroke-width:1.31px;}.cls-31{font-size:72px;}.cls-31,.cls-33,.cls-39{font-family:MrSheffieldPro, MrSheffield Pro;}.cls-32{letter-spacing:0em;}.cls-33{font-size:60px;}.cls-34{letter-spacing:0em;}.cls-36{stroke-width:1.02px;}.cls-37{stroke-width:0.89px;}.cls-38{stroke-width:1.74px;}</style></defs><rect class="cls-1" x="575" y="1244.51" width="76.26" height="76.26" transform="translate(-750.62 758.32) rotate(-45)"/><polygon class="cls-1" points="529.07 1188.73 566.18 1098.43 529.07 1038.19 529.04 1038.14 529.01 1038.19 493.74 1095.44 474.14 1153.57 529.07 1188.73"/><circle class="cls-2" cx="315.85" cy="440.92" r="11"/><circle class="cls-2" cx="385.51" cy="440.92" r="11"/><circle class="cls-2" cx="375.98" cy="464.9" r="11"/><circle class="cls-2" cx="374.52" cy="418.66" r="11"/><circle class="cls-2" cx="326.67" cy="464.9" r="11"/><circle class="cls-2" cx="351.55" cy="473.13" r="11"/><circle class="cls-2" cx="326.85" cy="416.94" r="11"/><circle class="cls-2" cx="350.68" cy="406.74" r="11"/><circle class="cls-1" cx="110.82" cy="528.21" r="37.96"/><circle class="cls-1" cx="104.37" cy="372.55" r="37.39"/><circle class="cls-2" cx="245.19" cy="344" r="37.39"/><text class="cls-3" transform="translate(77.87 40.8)">N<tspan class="cls-4" x="36.14" y="0">e</tspan><tspan x="65.28" y="0">sia </tspan><tspan class="cls-5" x="147.45" y="0">S</tspan><tspan class="cls-6" x="183.26" y="0">a</tspan><tspan class="cls-7" x="213.69" y="0">p</tspan><tspan x="244.65" y="0">arno</tspan><tspan class="cls-8"><tspan x="0" y="57.6">N</tspan><tspan class="cls-4" x="35.33" y="57.6">e</tspan><tspan x="63.84" y="57.6">sia </tspan><tspan class="cls-5" x="145.77" y="57.6">S</tspan><tspan class="cls-9" x="180.91" y="57.6">a</tspan><tspan class="cls-10" x="210.91" y="57.6">p</tspan><tspan x="241.25" y="57.6">arno</tspan></tspan></text><text class="cls-11" transform="translate(77.71 191.03)">N<tspan class="cls-12" x="35.33" y="0">e</tspan><tspan class="cls-13" x="65.9" y="0">sia</tspan><tspan x="137.47" y="0" xml:space="preserve">  S</tspan><tspan class="cls-13" x="194.01" y="0">a</tspan><tspan class="cls-14" x="225.41" y="0">p</tspan><tspan class="cls-15" x="257.71" y="0">arno</tspan><tspan class="cls-16"><tspan x="0" y="57.6">N</tspan><tspan class="cls-12" x="36.14" y="57.6">e</tspan><tspan class="cls-13" x="66.72" y="57.6">sia</tspan><tspan class="cls-17" x="138.29" y="57.6"> </tspan><tspan x="152.4" y="57.6">S</tspan><tspan class="cls-13" x="189.17" y="57.6">a</tspan><tspan class="cls-18" x="220.56" y="57.6">p</tspan><tspan class="cls-19" x="252.86" y="57.6">arno</tspan></tspan></text><path class="cls-20" d="M129.51,418.74V396h.39v34h-.1l-28.61-23.13v22.75h-.38v-34h.1Z" transform="translate(-23.24 -50.9)"/><path class="cls-20" d="M135,449.55a12,12,0,0,1-5.21-2.95,6.17,6.17,0,0,1-1.87-4.46,6.27,6.27,0,0,1,.86-3.17l.34.19a5.59,5.59,0,0,0-.82,3,5.82,5.82,0,0,0,1.75,4.2A11.31,11.31,0,0,0,135,449.1a25.06,25.06,0,0,0,7.25,1,15,15,0,0,0,6.84-1.44,4.62,4.62,0,0,0,2.86-4.32,4.24,4.24,0,0,0-1.37-3.15,11.42,11.42,0,0,0-3.38-2.2c-1.35-.6-3.19-1.29-5.52-2.09-2.85-1-5.13-1.88-6.82-2.67a13.62,13.62,0,0,1-4.37-3.16,7,7,0,0,1-1.82-4.88,7.8,7.8,0,0,1,1.92-5.25,12.41,12.41,0,0,1,5.3-3.46,24.91,24.91,0,0,1,14.55-.26,10.48,10.48,0,0,1,4.56,2.71,5.94,5.94,0,0,1,1.6,4.15,5.65,5.65,0,0,1-.72,2.88l-.28-.14a6.12,6.12,0,0,0,.62-2.74,5.6,5.6,0,0,0-1.49-3.86,9.49,9.49,0,0,0-4.13-2.55,18.84,18.84,0,0,0-6-.88,13.46,13.46,0,0,0-6.6,1.41,4.49,4.49,0,0,0-2.52,4.11,4,4,0,0,0,1.32,3,11.22,11.22,0,0,0,3.29,2q2,.81,5.43,1.92a73.39,73.39,0,0,1,6.91,2.56,13.42,13.42,0,0,1,4.49,3.22,7.27,7.27,0,0,1,1.84,5.06,8.33,8.33,0,0,1-2.13,5.81,13,13,0,0,1-5.79,3.53,26.62,26.62,0,0,1-8.16,1.18A25.78,25.78,0,0,1,135,449.55Z" transform="translate(-23.24 -50.9)"/><path class="cls-21" d="M289.79,998.63V975.88h.38v34h-.09l-28.61-23.13v22.75h-.39v-34h.1Z" transform="translate(-23.24 -50.9)"/><path class="cls-20" d="M295.25,1029.44a12.08,12.08,0,0,1-5.21-3,6.24,6.24,0,0,1-1-7.63l.33.19a5.67,5.67,0,0,0-.81,3,5.82,5.82,0,0,0,1.75,4.2,11.31,11.31,0,0,0,4.92,2.76,25,25,0,0,0,7.25,1,15.07,15.07,0,0,0,6.84-1.44,4.61,4.61,0,0,0,2.85-4.32,4.18,4.18,0,0,0-1.37-3.14,11.45,11.45,0,0,0-3.38-2.21c-1.34-.59-3.19-1.29-5.52-2.09q-4.27-1.49-6.82-2.66a13.6,13.6,0,0,1-4.36-3.17,6.94,6.94,0,0,1-1.83-4.87,7.81,7.81,0,0,1,1.92-5.26,12.38,12.38,0,0,1,5.31-3.46,24.88,24.88,0,0,1,14.54-.26,10.37,10.37,0,0,1,4.56,2.71,5.94,5.94,0,0,1,1.61,4.15,5.65,5.65,0,0,1-.72,2.88l-.29-.14a6.09,6.09,0,0,0,.62-2.74,5.59,5.59,0,0,0-1.48-3.86,9.54,9.54,0,0,0-4.13-2.54,18.55,18.55,0,0,0-6-.89,13.46,13.46,0,0,0-6.6,1.41,4.49,4.49,0,0,0-2.52,4.11,4,4,0,0,0,1.32,3,11.09,11.09,0,0,0,3.29,2q2,.81,5.42,1.92a72,72,0,0,1,6.91,2.57,13.16,13.16,0,0,1,4.49,3.21A7.28,7.28,0,0,1,319,1020a8.27,8.27,0,0,1-2.14,5.8,12.93,12.93,0,0,1-5.78,3.53,26.41,26.41,0,0,1-8.16,1.18A25.9,25.9,0,0,1,295.25,1029.44Z" transform="translate(-23.24 -50.9)"/><path class="cls-22" d="M237.16,1098.27v-22.75h.38v34h-.09l-28.61-23.13v22.75h-.39v-34h.1Z" transform="translate(-23.24 -50.9)"/><path class="cls-22" d="M244.62,1130.08a12.08,12.08,0,0,1-5.21-2.95,6.24,6.24,0,0,1-1-7.63l.33.19a5.67,5.67,0,0,0-.81,3,5.82,5.82,0,0,0,1.75,4.2,11.31,11.31,0,0,0,4.92,2.76,25,25,0,0,0,7.25,1,15.07,15.07,0,0,0,6.84-1.44,4.61,4.61,0,0,0,2.85-4.32,4.2,4.2,0,0,0-1.37-3.15,11.42,11.42,0,0,0-3.38-2.2c-1.34-.6-3.18-1.29-5.52-2.09q-4.28-1.48-6.82-2.67a13.58,13.58,0,0,1-4.36-3.16,7,7,0,0,1-1.83-4.88,7.8,7.8,0,0,1,1.92-5.25,12.38,12.38,0,0,1,5.31-3.46,24.88,24.88,0,0,1,14.54-.26,10.37,10.37,0,0,1,4.56,2.71,5.94,5.94,0,0,1,1.61,4.15,5.65,5.65,0,0,1-.72,2.88l-.29-.14a6,6,0,0,0,.62-2.74,5.59,5.59,0,0,0-1.48-3.86,9.55,9.55,0,0,0-4.13-2.55,18.84,18.84,0,0,0-6-.88,13.46,13.46,0,0,0-6.6,1.41,4.48,4.48,0,0,0-2.52,4.11,4,4,0,0,0,1.32,3,11.09,11.09,0,0,0,3.29,2q2,.81,5.42,1.92a72.35,72.35,0,0,1,6.91,2.56,13.32,13.32,0,0,1,4.49,3.22,7.27,7.27,0,0,1,1.85,5.06,8.29,8.29,0,0,1-2.14,5.81,12.93,12.93,0,0,1-5.78,3.53,26.62,26.62,0,0,1-8.16,1.18A25.9,25.9,0,0,1,244.62,1130.08Z" transform="translate(-23.24 -50.9)"/><path class="cls-21" d="M114.57,1332.23v-22.75H115v34h-.1l-28.6-23.13v22.75h-.39v-34H86Z" transform="translate(-23.24 -50.9)"/><path class="cls-21" d="M122,1364a12.18,12.18,0,0,1-5.21-3,6.19,6.19,0,0,1-1.87-4.46,6.27,6.27,0,0,1,.86-3.17l.34.19a5.68,5.68,0,0,0-.82,3,5.83,5.83,0,0,0,1.76,4.2,11.19,11.19,0,0,0,4.92,2.76,24.94,24.94,0,0,0,7.24,1,15,15,0,0,0,6.84-1.44,4.61,4.61,0,0,0,2.86-4.32,4.24,4.24,0,0,0-1.37-3.15,11.65,11.65,0,0,0-3.38-2.21q-2-.89-5.52-2.08c-2.85-1-5.12-1.88-6.82-2.67a13.61,13.61,0,0,1-4.37-3.17,7,7,0,0,1-1.82-4.87,7.78,7.78,0,0,1,1.92-5.25,12.41,12.41,0,0,1,5.3-3.46,22.21,22.21,0,0,1,7.61-1.22,22.51,22.51,0,0,1,6.94,1,10.37,10.37,0,0,1,4.56,2.71,5.94,5.94,0,0,1,1.61,4.15,5.65,5.65,0,0,1-.72,2.88l-.29-.14a6.16,6.16,0,0,0,.62-2.74,5.55,5.55,0,0,0-1.49-3.86,9.45,9.45,0,0,0-4.12-2.55,18.83,18.83,0,0,0-6-.89,13.46,13.46,0,0,0-6.6,1.42,4.48,4.48,0,0,0-2.52,4.11,4,4,0,0,0,1.32,3,10.94,10.94,0,0,0,3.28,2c1.32.55,3.12,1.19,5.43,1.93a72.35,72.35,0,0,1,6.91,2.56,13.32,13.32,0,0,1,4.49,3.22,7.27,7.27,0,0,1,1.85,5.06,8.34,8.34,0,0,1-2.14,5.81,13,13,0,0,1-5.78,3.53,26.72,26.72,0,0,1-8.16,1.17A25.87,25.87,0,0,1,122,1364Z" transform="translate(-23.24 -50.9)"/><circle class="cls-1" cx="507.95" cy="358.35" r="37.39"/><path class="cls-23" d="M535,407.05V384.3h.39v34h-.1l-28.61-23.14V417.9h-.38v-34h.09Z" transform="translate(-23.24 -50.9)"/><path class="cls-23" d="M540.43,437.86a12.06,12.06,0,0,1-5.21-2.95,6.26,6.26,0,0,1-1-7.63l.34.19a5.58,5.58,0,0,0-.82,3,5.81,5.81,0,0,0,1.75,4.2,11.42,11.42,0,0,0,4.92,2.77,25,25,0,0,0,7.25,1,15.18,15.18,0,0,0,6.84-1.44,4.64,4.64,0,0,0,2.86-4.33,4.23,4.23,0,0,0-1.37-3.14,11.57,11.57,0,0,0-3.39-2.21q-2-.88-5.52-2.08c-2.85-1-5.12-1.88-6.81-2.67a13.5,13.5,0,0,1-4.37-3.17,6.91,6.91,0,0,1-1.82-4.87,7.72,7.72,0,0,1,1.92-5.25,12.2,12.2,0,0,1,5.3-3.46,22.17,22.17,0,0,1,7.61-1.23,22.44,22.44,0,0,1,6.93,1,10.47,10.47,0,0,1,4.56,2.72,5.94,5.94,0,0,1,1.61,4.15,5.65,5.65,0,0,1-.72,2.88l-.29-.14a6,6,0,0,0,.63-2.74,5.64,5.64,0,0,0-1.49-3.87,9.48,9.48,0,0,0-4.13-2.54,18.83,18.83,0,0,0-6-.89,13.46,13.46,0,0,0-6.6,1.42,4.46,4.46,0,0,0-2.52,4.1,3.92,3.92,0,0,0,1.32,3,10.82,10.82,0,0,0,3.29,2q2,.83,5.42,1.92,4.27,1.39,6.92,2.57a13.38,13.38,0,0,1,4.48,3.22,7.27,7.27,0,0,1,1.85,5.06,8.35,8.35,0,0,1-2.13,5.81,13.11,13.11,0,0,1-5.79,3.53,26.62,26.62,0,0,1-8.16,1.17A25.8,25.8,0,0,1,540.43,437.86Z" transform="translate(-23.24 -50.9)"/><path class="cls-23" d="M616.72,1280.28v-22.75h.38v34H617l-28.61-23.14v22.75H588v-34h.1Z" transform="translate(-23.24 -50.9)"/><path class="cls-23" d="M622.18,1311.1a12.18,12.18,0,0,1-5.21-2.95,6.25,6.25,0,0,1-1-7.64l.33.2a5.61,5.61,0,0,0-.81,3,5.82,5.82,0,0,0,1.75,4.2,11.31,11.31,0,0,0,4.92,2.76,25,25,0,0,0,7.25,1,15.07,15.07,0,0,0,6.84-1.44,4.61,4.61,0,0,0,2.85-4.32,4.19,4.19,0,0,0-1.37-3.14,11.45,11.45,0,0,0-3.38-2.21q-2-.88-5.52-2.09-4.27-1.49-6.82-2.66a13.6,13.6,0,0,1-4.36-3.17,6.94,6.94,0,0,1-1.83-4.87,7.81,7.81,0,0,1,1.92-5.26,12.28,12.28,0,0,1,5.31-3.45,22.11,22.11,0,0,1,7.6-1.23,22.51,22.51,0,0,1,6.94,1,10.46,10.46,0,0,1,4.56,2.71,6,6,0,0,1,1.61,4.16,5.7,5.7,0,0,1-.72,2.88l-.29-.15a6,6,0,0,0,.62-2.73,5.61,5.61,0,0,0-1.48-3.87,9.54,9.54,0,0,0-4.13-2.54,18.83,18.83,0,0,0-6-.89,13.35,13.35,0,0,0-6.6,1.42,4.46,4.46,0,0,0-2.52,4.1,4,4,0,0,0,1.32,3,10.7,10.7,0,0,0,3.29,2q2,.81,5.42,1.92a72,72,0,0,1,6.91,2.57,13.16,13.16,0,0,1,4.49,3.21,7.28,7.28,0,0,1,1.85,5.07,8.31,8.31,0,0,1-2.14,5.81A13,13,0,0,1,638,1311a26.32,26.32,0,0,1-8.16,1.18A25.92,25.92,0,0,1,622.18,1311.1Z" transform="translate(-23.24 -50.9)"/><path class="cls-20" d="M297.78,408.09v-25h.39v34h-.1l-28.65-25.39v25H269v-34h.1Z" transform="translate(-23.24 -50.9)"/><path class="cls-20" d="M422.12,623.31a11.91,11.91,0,0,1-5.23-3A6.35,6.35,0,0,1,415,615.8a5.71,5.71,0,0,1,.87-3.17l.33.2a5.79,5.79,0,0,0-.81,3,5.9,5.9,0,0,0,1.77,4.23,11.89,11.89,0,0,0,5,2.83,24.39,24.39,0,0,0,7.32,1,18.21,18.21,0,0,0,7.63-1.54,5.11,5.11,0,0,0,3.36-4.9,4.57,4.57,0,0,0-1.53-3.48,12.16,12.16,0,0,0-3.77-2.3q-2.23-.89-6.12-2c-2.91-.86-5.25-1.66-7-2.38a13,13,0,0,1-4.46-2.93,6.3,6.3,0,0,1-1.83-4.63,7.57,7.57,0,0,1,1.9-5.09,12.06,12.06,0,0,1,5.26-3.4,25.19,25.19,0,0,1,14.64-.22,10.48,10.48,0,0,1,4.6,2.79,6,6,0,0,1,1.63,4.2,6.13,6.13,0,0,1-.71,3l-.29-.19a6.74,6.74,0,0,0,.62-2.83,5.72,5.72,0,0,0-1.53-4,9.8,9.8,0,0,0-4.3-2.62,20.06,20.06,0,0,0-6.31-.91,15.12,15.12,0,0,0-7.39,1.58A4.91,4.91,0,0,0,421,596.5a4.19,4.19,0,0,0,1.47,3.25,10.94,10.94,0,0,0,3.62,2.11c1.44.52,3.42,1.16,5.95,1.89q4.43,1.25,7.15,2.33a13.36,13.36,0,0,1,4.66,3,6.73,6.73,0,0,1,1.92,4.93,8,8,0,0,1-2.16,5.68,13.08,13.08,0,0,1-5.78,3.48,26.62,26.62,0,0,1-8.09,1.15A25.9,25.9,0,0,1,422.12,623.31Z" transform="translate(-23.24 -50.9)"/><text class="cls-24" transform="translate(118.62 524.19)"><tspan class="cls-4">e</tspan><tspan x="14.88" y="0">sia</tspan></text><text class="cls-24" transform="translate(145.78 551.51)">a<tspan class="cls-7" x="15.43" y="0">p</tspan><tspan x="31.2" y="0">arno</tspan></text><polygon class="cls-25" points="52.84 1165.27 72.86 1103.08 52.84 1061.59 52.82 1061.56 52.81 1061.59 32.78 1103.08 52.81 1165.27 52.82 1165.31 52.84 1165.27"/><path class="cls-23" d="M142.93,570.86v-25h.38v34h-.1l-28.65-25.39v25h-.39v-34h.1Z" transform="translate(-23.24 -50.9)"/><path class="cls-23" d="M147.35,607.8a12.06,12.06,0,0,1-5.23-3,6.34,6.34,0,0,1-1.87-4.54,5.78,5.78,0,0,1,.86-3.17l.34.19a5.74,5.74,0,0,0-.82,3,5.84,5.84,0,0,0,1.78,4.22,11.73,11.73,0,0,0,5,2.84,24.31,24.31,0,0,0,7.32,1,18.24,18.24,0,0,0,7.63-1.53,5.12,5.12,0,0,0,3.36-4.9,4.55,4.55,0,0,0-1.54-3.48,12,12,0,0,0-3.77-2.3q-2.22-.89-6.12-2-4.37-1.3-7-2.38a13.16,13.16,0,0,1-4.47-2.93,6.33,6.33,0,0,1-1.82-4.63,7.61,7.61,0,0,1,1.89-5.09,12.17,12.17,0,0,1,5.26-3.4,22.59,22.59,0,0,1,7.63-1.2,22.26,22.26,0,0,1,7,1,10.6,10.6,0,0,1,4.61,2.78,6,6,0,0,1,1.63,4.2,6.14,6.14,0,0,1-.72,3l-.29-.19a6.62,6.62,0,0,0,.63-2.84,5.77,5.77,0,0,0-1.54-4,9.82,9.82,0,0,0-4.3-2.61,20,20,0,0,0-6.31-.91,15,15,0,0,0-7.39,1.58,4.9,4.9,0,0,0-2.83,4.46,4.21,4.21,0,0,0,1.46,3.24,11.11,11.11,0,0,0,3.63,2.12c1.44.52,3.42,1.16,5.95,1.89,2.94.83,5.33,1.61,7.15,2.33a13.45,13.45,0,0,1,4.66,3,6.72,6.72,0,0,1,1.92,4.92,8.06,8.06,0,0,1-2.16,5.69,13.15,13.15,0,0,1-5.79,3.48,26.53,26.53,0,0,1-8.09,1.15A25.94,25.94,0,0,1,147.35,607.8Z" transform="translate(-23.24 -50.9)"/><text x="-23.24" y="-50.9"/><text class="cls-26" transform="translate(183.06 671.3)"><tspan class="cls-4">e</tspan><tspan x="14.88" y="0">sia</tspan></text><text class="cls-27" transform="translate(210.22 698.62)">a<tspan class="cls-7" x="15.43" y="0">p</tspan><tspan x="31.2" y="0">arno</tspan></text><path class="cls-22" d="M207.37,718V693h.38v34h-.1L179,701.56v25h-.39v-34h.1Z" transform="translate(-23.24 -50.9)"/><path class="cls-1" d="M211.79,754.92a12,12,0,0,1-5.23-3,6.31,6.31,0,0,1-1.87-4.53,5.68,5.68,0,0,1,.86-3.17l.34.19a5.74,5.74,0,0,0-.82,3,5.85,5.85,0,0,0,1.78,4.22,11.64,11.64,0,0,0,5,2.83,24.41,24.41,0,0,0,7.33,1,18.09,18.09,0,0,0,7.63-1.54,5.1,5.1,0,0,0,3.36-4.89,4.55,4.55,0,0,0-1.54-3.48,12.06,12.06,0,0,0-3.77-2.31q-2.23-.88-6.12-2c-2.91-.86-5.25-1.65-7-2.37a13.21,13.21,0,0,1-4.47-2.93,6.31,6.31,0,0,1-1.82-4.63,7.6,7.6,0,0,1,1.89-5.09,12.19,12.19,0,0,1,5.26-3.41,22.59,22.59,0,0,1,7.63-1.2,22.29,22.29,0,0,1,7,1,10.51,10.51,0,0,1,4.61,2.78,6.4,6.4,0,0,1,.91,7.22l-.29-.19a6.56,6.56,0,0,0,.62-2.83,5.76,5.76,0,0,0-1.53-4,9.8,9.8,0,0,0-4.3-2.62,20.31,20.31,0,0,0-6.31-.91,15,15,0,0,0-7.39,1.59,4.89,4.89,0,0,0-2.83,4.46,4.18,4.18,0,0,0,1.46,3.24,11,11,0,0,0,3.62,2.11q2.16.79,6,1.9,4.41,1.25,7.15,2.33a13.27,13.27,0,0,1,4.65,3,6.72,6.72,0,0,1,1.92,4.92,8.06,8.06,0,0,1-2.16,5.69,13.12,13.12,0,0,1-5.78,3.48,26.57,26.57,0,0,1-8.09,1.15A25.9,25.9,0,0,1,211.79,754.92Z" transform="translate(-23.24 -50.9)"/><text x="-23.24" y="-50.9"/><text class="cls-28" transform="translate(274.93 366.16)"><tspan class="cls-4">e</tspan><tspan x="14.88" y="0">sia</tspan></text><path class="cls-29" d="M456.47,1149V1032s-44.21.25-39.28,45.13C417.19,1077.14,422.79,1125.36,456.47,1149Z" transform="translate(-23.24 -50.9)"/><polygon class="cls-29" points="427.71 1014.87 433.23 1025.23 433.23 999.49 429.55 1000.83 427.71 1014.87"/><polyline class="cls-29" points="413.4 985.99 428.71 986.96 422.2 995.82 400.93 995.82"/><polyline class="cls-29" points="433.23 982.61 428.71 986.96 429.55 1000.83 417.52 1007.18 422.2 995.82 405.31 995.82 414.26 1024.81 417.01 1009.19 427.71 1014.87 414.82 1026.78 432.39 1065.68 433.23 1025.23"/><polyline class="cls-29" points="433.23 1074.54 417.18 1069.69 421.79 1042.2"/><polyline class="cls-29" points="416.75 1082.24 417.18 1069.69 411 1066.68 409.68 1071.78"/><line class="cls-29" x1="394.86" y1="1031.73" x2="417.18" y2="1030.91"/><path class="cls-29" d="M457.72,1149V1032s44.21.25,39.28,45.13C497,1077.14,491.4,1125.36,457.72,1149Z" transform="translate(-23.24 -50.9)"/><polygon class="cls-29" points="440 1014.87 434.48 1025.23 434.48 999.49 438.16 1000.83 440 1014.87"/><polyline class="cls-29" points="454.31 985.99 438.99 986.96 445.51 995.82 466.78 995.82"/><polyline class="cls-29" points="434.48 982.61 438.99 986.96 438.16 1000.83 450.19 1007.18 445.51 995.82 462.39 995.82 453.45 1024.81 450.69 1009.19 440 1014.87 452.88 1026.78 435.32 1065.68 434.48 1025.23"/><polyline class="cls-29" points="434.48 1074.54 450.52 1069.69 445.92 1042.2"/><polyline class="cls-29" points="450.96 1082.24 450.52 1069.69 456.71 1066.68 458.03 1071.78"/><line class="cls-29" x1="472.85" y1="1031.73" x2="450.52" y2="1030.91"/><text class="cls-30" transform="translate(231.3 1346.85)"><tspan class="cls-5">S</tspan><tspan x="35.14" y="0">a</tspan><tspan class="cls-5" x="65.14" y="0">p</tspan><tspan x="95.47" y="0">arno</tspan></text><text class="cls-31" transform="translate(237.84 1308.79)">Ne<tspan class="cls-32" x="60.33" y="0">s</tspan><tspan x="75.89" y="0">ia</tspan></text><text class="cls-30" transform="translate(234.57 1206.2)">N<tspan class="cls-4" x="35.33" y="0">e</tspan><tspan x="63.84" y="0">sia</tspan></text><text class="cls-33" transform="translate(10.26 1124.11)">Ne<tspan class="cls-34" x="50.28" y="0">s</tspan><tspan x="63.24" y="0">ia</tspan></text><path class="cls-35" d="M222.55,1070.2a29.59,29.59,0,0,1,44.77,26.9" transform="translate(-23.24 -50.9)"/><path class="cls-21" d="M177.26,1196.63v-22.75h.38v34h-.1l-28.61-23.14v22.75h-.38v-34h.1Z" transform="translate(-23.24 -50.9)"/><path class="cls-21" d="M184.72,1228.45a12.12,12.12,0,0,1-5.21-3,6.2,6.2,0,0,1-1.87-4.47,6.29,6.29,0,0,1,.86-3.17l.34.2a5.53,5.53,0,0,0-.82,3,5.86,5.86,0,0,0,1.75,4.2,11.31,11.31,0,0,0,4.92,2.76,25.06,25.06,0,0,0,7.25,1,15,15,0,0,0,6.84-1.44,4.61,4.61,0,0,0,2.86-4.32,4.23,4.23,0,0,0-1.37-3.14,11.45,11.45,0,0,0-3.38-2.21q-2-.88-5.52-2.09-4.27-1.49-6.82-2.66a13.65,13.65,0,0,1-4.37-3.17,7,7,0,0,1-1.82-4.87,7.81,7.81,0,0,1,1.92-5.26,12.3,12.3,0,0,1,5.3-3.45,22.17,22.17,0,0,1,7.61-1.23,22.51,22.51,0,0,1,6.94,1,10.52,10.52,0,0,1,4.56,2.71,6,6,0,0,1,1.6,4.16,5.7,5.7,0,0,1-.71,2.88l-.29-.15a6.08,6.08,0,0,0,.62-2.73,5.62,5.62,0,0,0-1.49-3.87,9.48,9.48,0,0,0-4.13-2.54,18.83,18.83,0,0,0-6-.89,13.35,13.35,0,0,0-6.6,1.42,4.48,4.48,0,0,0-2.52,4.1,3.92,3.92,0,0,0,1.33,3,10.65,10.65,0,0,0,3.28,2q2,.81,5.43,1.92a73.06,73.06,0,0,1,6.91,2.57,13.26,13.26,0,0,1,4.49,3.21,7.29,7.29,0,0,1,1.84,5.07,8.35,8.35,0,0,1-2.13,5.81,13.06,13.06,0,0,1-5.78,3.52,26.43,26.43,0,0,1-8.17,1.18A25.85,25.85,0,0,1,184.72,1228.45Z" transform="translate(-23.24 -50.9)"/><path class="cls-21" d="M326.87,1166.06v-22.75h.39v34h-.1l-28.61-23.14v22.75h-.38v-34h.09Z" transform="translate(-23.24 -50.9)"/><path class="cls-21" d="M334.34,1197.87a12.12,12.12,0,0,1-5.21-2.95,6.2,6.2,0,0,1-1.87-4.47,6.13,6.13,0,0,1,.86-3.16l.34.19a5.56,5.56,0,0,0-.82,3,5.82,5.82,0,0,0,1.75,4.2,11.31,11.31,0,0,0,4.92,2.76,25,25,0,0,0,7.25,1,15,15,0,0,0,6.84-1.44,4.62,4.62,0,0,0,2.86-4.32,4.23,4.23,0,0,0-1.37-3.14,11.57,11.57,0,0,0-3.39-2.21q-2-.88-5.52-2.09c-2.84-1-5.12-1.88-6.81-2.66a13.5,13.5,0,0,1-4.37-3.17,6.93,6.93,0,0,1-1.82-4.87,7.81,7.81,0,0,1,1.92-5.26,12.33,12.33,0,0,1,5.3-3.45,22.17,22.17,0,0,1,7.61-1.23,22.44,22.44,0,0,1,6.93,1,10.38,10.38,0,0,1,4.56,2.72,5.88,5.88,0,0,1,1.61,4.15,5.65,5.65,0,0,1-.72,2.88l-.29-.15a6,6,0,0,0,.63-2.73,5.64,5.64,0,0,0-1.49-3.87,9.48,9.48,0,0,0-4.13-2.54,18.83,18.83,0,0,0-6-.89,13.46,13.46,0,0,0-6.6,1.42,4.46,4.46,0,0,0-2.52,4.1,3.92,3.92,0,0,0,1.32,3,10.82,10.82,0,0,0,3.29,2q2,.83,5.42,1.92,4.28,1.39,6.92,2.57a13.28,13.28,0,0,1,4.48,3.22,7.21,7.21,0,0,1,1.85,5.06,8.35,8.35,0,0,1-2.13,5.81,13.11,13.11,0,0,1-5.79,3.53,26.62,26.62,0,0,1-8.16,1.17A25.8,25.8,0,0,1,334.34,1197.87Z" transform="translate(-23.24 -50.9)"/><path class="cls-36" d="M162.65,1168.57a29.57,29.57,0,0,1,44.76,26.9" transform="translate(-23.24 -50.9)"/><path class="cls-21" d="M120.34,1052.72V1030h.38v34h-.1L92,1040.82v22.75h-.38v-34h.1Z" transform="translate(-23.24 -50.9)"/><path class="cls-20" d="M126.8,1084.54a12.13,12.13,0,0,1-5.21-3,6.17,6.17,0,0,1-1.87-4.46,6.27,6.27,0,0,1,.86-3.17l.34.19a5.59,5.59,0,0,0-.82,3,5.86,5.86,0,0,0,1.75,4.2,11.31,11.31,0,0,0,4.92,2.76,25.06,25.06,0,0,0,7.25,1,15,15,0,0,0,6.84-1.44,4.61,4.61,0,0,0,2.86-4.32,4.21,4.21,0,0,0-1.37-3.14,11.45,11.45,0,0,0-3.38-2.21q-2-.89-5.52-2.09-4.27-1.48-6.82-2.66a13.65,13.65,0,0,1-4.37-3.17,7,7,0,0,1-1.82-4.87,7.81,7.81,0,0,1,1.92-5.26,12.41,12.41,0,0,1,5.3-3.46,24.91,24.91,0,0,1,14.55-.26,10.48,10.48,0,0,1,4.56,2.71,5.94,5.94,0,0,1,1.6,4.15,5.65,5.65,0,0,1-.72,2.88l-.28-.14A6.09,6.09,0,0,0,148,1059a5.6,5.6,0,0,0-1.49-3.86,9.48,9.48,0,0,0-4.13-2.54,18.55,18.55,0,0,0-6-.89,13.46,13.46,0,0,0-6.6,1.41,4.49,4.49,0,0,0-2.52,4.11,4,4,0,0,0,1.32,3,11.22,11.22,0,0,0,3.29,2q2,.81,5.43,1.92a73.06,73.06,0,0,1,6.91,2.57,13.26,13.26,0,0,1,4.49,3.21,7.27,7.27,0,0,1,1.84,5.07,8.31,8.31,0,0,1-2.13,5.8,13,13,0,0,1-5.79,3.53,28.86,28.86,0,0,1-15.81.15Z" transform="translate(-23.24 -50.9)"/><path class="cls-36" d="M105.73,1024.65a29.58,29.58,0,0,1,44.76,26.9" transform="translate(-23.24 -50.9)"/><path class="cls-21" d="M74.59,1335.17" transform="translate(-23.24 -50.9)"/><path class="cls-37" d="M114.59,1375.16" transform="translate(-23.24 -50.9)"/><path class="cls-21" d="M142.87,1363.45" transform="translate(-23.24 -50.9)"/><path class="cls-35" d="M89.8,1303.47a40,40,0,0,1,60.2,48.4" transform="translate(-23.24 -50.9)"/><path class="cls-37" d="M93.35,1301.27" transform="translate(-23.24 -50.9)"/><path class="cls-21" d="M85,1308.24" transform="translate(-23.24 -50.9)"/><path class="cls-21" d="M115.1,1253.63v-22.76h.38v34h-.1l-28.6-23.14v22.75h-.39v-34h.1Z" transform="translate(-23.24 -50.9)"/><path class="cls-20" d="M121.56,1286.44a12.12,12.12,0,0,1-5.21-3,6.2,6.2,0,0,1-1.87-4.47,6.29,6.29,0,0,1,.86-3.17l.34.2a5.56,5.56,0,0,0-.82,3,5.83,5.83,0,0,0,1.76,4.2,11.19,11.19,0,0,0,4.92,2.76,24.94,24.94,0,0,0,7.24,1,15,15,0,0,0,6.84-1.44,4.61,4.61,0,0,0,2.86-4.32,4.23,4.23,0,0,0-1.37-3.14,11.45,11.45,0,0,0-3.38-2.21q-2-.88-5.52-2.09-4.28-1.48-6.82-2.66a13.65,13.65,0,0,1-4.37-3.17,7,7,0,0,1-1.82-4.87,7.81,7.81,0,0,1,1.92-5.26,12.3,12.3,0,0,1,5.3-3.45,22.21,22.21,0,0,1,7.61-1.23,22.51,22.51,0,0,1,6.94,1,10.38,10.38,0,0,1,4.56,2.72,5.93,5.93,0,0,1,1.61,4.15,5.65,5.65,0,0,1-.72,2.88l-.29-.15a6.08,6.08,0,0,0,.62-2.73,5.62,5.62,0,0,0-1.49-3.87,9.44,9.44,0,0,0-4.12-2.54,18.83,18.83,0,0,0-6-.89,13.35,13.35,0,0,0-6.6,1.42,4.46,4.46,0,0,0-2.52,4.1,4,4,0,0,0,1.32,3,10.77,10.77,0,0,0,3.28,2c1.32.55,3.12,1.18,5.43,1.92q4.27,1.4,6.91,2.57a13.16,13.16,0,0,1,4.49,3.21,7.3,7.3,0,0,1,1.85,5.07,8.36,8.36,0,0,1-2.14,5.81,13.06,13.06,0,0,1-5.78,3.52,26.41,26.41,0,0,1-8.16,1.18A25.87,25.87,0,0,1,121.56,1286.44Z" transform="translate(-23.24 -50.9)"/><path class="cls-21" d="M143.4,1284.84" transform="translate(-23.24 -50.9)"/><path class="cls-35" d="M90.33,1224.86a40,40,0,0,1,60.2,48.4" transform="translate(-23.24 -50.9)"/><path class="cls-22" d="M182.59,1434.19v-22.76H183v34h-.1l-28.61-23.14V1445h-.38v-34h.1Z" transform="translate(-23.24 -50.9)"/><path class="cls-1" d="M189.06,1467a12.12,12.12,0,0,1-5.21-3,6.2,6.2,0,0,1-1.87-4.47,6.29,6.29,0,0,1,.86-3.17l.34.2a5.56,5.56,0,0,0-.82,3,5.86,5.86,0,0,0,1.75,4.2,11.31,11.31,0,0,0,4.92,2.76,25.06,25.06,0,0,0,7.25,1,15,15,0,0,0,6.84-1.44,4.61,4.61,0,0,0,2.86-4.32,4.23,4.23,0,0,0-1.37-3.14,11.45,11.45,0,0,0-3.38-2.21q-2-.89-5.52-2.09-4.28-1.48-6.82-2.66a13.65,13.65,0,0,1-4.37-3.17,7,7,0,0,1-1.82-4.87,7.81,7.81,0,0,1,1.92-5.26,12.3,12.3,0,0,1,5.3-3.45,22.17,22.17,0,0,1,7.61-1.23,22.51,22.51,0,0,1,6.94,1,10.5,10.5,0,0,1,4.56,2.72,5.92,5.92,0,0,1,1.6,4.15,5.65,5.65,0,0,1-.72,2.88l-.28-.15a6.08,6.08,0,0,0,.62-2.73,5.62,5.62,0,0,0-1.49-3.87,9.48,9.48,0,0,0-4.13-2.54,18.83,18.83,0,0,0-6-.89,13.35,13.35,0,0,0-6.6,1.42,4.46,4.46,0,0,0-2.52,4.1,4,4,0,0,0,1.32,3,10.82,10.82,0,0,0,3.29,2c1.31.55,3.12,1.18,5.43,1.92,2.84.93,5.15,1.79,6.91,2.57a13.4,13.4,0,0,1,4.49,3.21,7.29,7.29,0,0,1,1.84,5.07,8.35,8.35,0,0,1-2.13,5.81,13,13,0,0,1-5.79,3.52,26.32,26.32,0,0,1-8.16,1.18A25.8,25.8,0,0,1,189.06,1467Z" transform="translate(-23.24 -50.9)"/><path class="cls-22" d="M157.83,1405.42a40,40,0,0,1,60.2,48.4" transform="translate(-23.24 -50.9)"/><path class="cls-37" d="M93.88,1222.67" transform="translate(-23.24 -50.9)"/><path class="cls-21" d="M85.55,1229.63" transform="translate(-23.24 -50.9)"/><path class="cls-23" d="M504.73,1746.47h-1.17l-.41-.19-48.28-39v38.57h-2.41V1685h1.18l.41.19,48.28,39V1685.7h2.4Zm-50.53-42L503,1743.92V1727l-48.79-39.46Z" transform="translate(-23.24 -50.9)"/><path class="cls-23" d="M514.42,1783.09a20.88,20.88,0,0,1-9-5.13,10.87,10.87,0,0,1-1.75-13.26l.58.34a9.74,9.74,0,0,0-1.42,5.17,10.11,10.11,0,0,0,3,7.29,19.45,19.45,0,0,0,8.54,4.8A43.53,43.53,0,0,0,527,1784a26.12,26.12,0,0,0,11.89-2.51c3.3-1.66,5-4.17,5-7.5a7.35,7.35,0,0,0-2.38-5.46,19.83,19.83,0,0,0-5.88-3.84q-3.49-1.53-9.59-3.62-7.43-2.6-11.84-4.63a23.8,23.8,0,0,1-7.59-5.5,12.09,12.09,0,0,1-3.16-8.47,13.58,13.58,0,0,1,3.33-9.13,21.44,21.44,0,0,1,9.22-6,38.54,38.54,0,0,1,13.21-2.13,39.15,39.15,0,0,1,12.05,1.67,18,18,0,0,1,7.92,4.71,10.31,10.31,0,0,1,2.79,7.21,9.81,9.81,0,0,1-1.25,5l-.5-.25a10.41,10.41,0,0,0,1.09-4.76,9.71,9.71,0,0,0-2.59-6.71,16.41,16.41,0,0,0-7.17-4.42,32.57,32.57,0,0,0-10.42-1.54q-7.09,0-11.47,2.46a7.78,7.78,0,0,0-4.37,7.13,6.84,6.84,0,0,0,2.29,5.21,18.85,18.85,0,0,0,5.71,3.54q3.42,1.43,9.42,3.34a127.71,127.71,0,0,1,12,4.46,22.87,22.87,0,0,1,7.8,5.59,12.6,12.6,0,0,1,3.21,8.79,14.47,14.47,0,0,1-3.71,10.09,22.59,22.59,0,0,1-10.05,6.13,46.16,46.16,0,0,1-14.18,2A44.92,44.92,0,0,1,514.42,1783.09Z" transform="translate(-23.24 -50.9)"/><path class="cls-23" d="M565.54,1760.55l-1.59-.7a68.63,68.63,0,0,0-103.26-83l-1-1.4a70.37,70.37,0,0,1,105.87,85.13Z" transform="translate(-23.24 -50.9)"/><path class="cls-38" d="M451.87,1684.41" transform="translate(-23.24 -50.9)"/><text class="cls-39" transform="translate(407.16 670.68)">NS</text><text class="cls-28" transform="translate(360.56 693.75)">N<tspan class="cls-4" x="18.46" y="0">e</tspan><tspan x="33.34" y="0">sia </tspan><tspan class="cls-10" x="74.52" y="0">S</tspan><tspan x="92.78" y="0">a</tspan><tspan class="cls-10" x="108.22" y="0">p</tspan><tspan x="123.98" y="0">arno</tspan></text></svg>