<svg id="Layer_1" data-name="Layer 1" xmlns="http://www.w3.org/2000/svg" viewBox="0 0 314.04 373.02"><defs><style>.cls-1{fill:#231f20;}</style></defs><path class="cls-1" d="M151.07,215.53h-1.18l-.4-.2-48.28-39v38.57H98.8V154.09H100l.4.19,48.29,39.05V154.76h2.4Zm-50.53-42L149.33,213V196.1l-48.79-39.46Z"/><path class="cls-1" d="M160.76,252.15a20.88,20.88,0,0,1-9-5.13A10.83,10.83,0,0,1,150,233.76l.58.34a9.74,9.74,0,0,0-1.42,5.17,10.14,10.14,0,0,0,3,7.29,19.55,19.55,0,0,0,8.55,4.8A43.53,43.53,0,0,0,173.31,253a26.12,26.12,0,0,0,11.89-2.51c3.3-1.66,5-4.17,5-7.5a7.35,7.35,0,0,0-2.38-5.46,19.83,19.83,0,0,0-5.88-3.84q-3.5-1.54-9.59-3.62-7.42-2.59-11.84-4.63a23.57,23.57,0,0,1-7.59-5.51,12,12,0,0,1-3.16-8.46,13.56,13.56,0,0,1,3.33-9.13,21.47,21.47,0,0,1,9.21-6,38.63,38.63,0,0,1,13.22-2.13,39.15,39.15,0,0,1,12.05,1.67,18,18,0,0,1,7.92,4.71,10.31,10.31,0,0,1,2.79,7.21,9.74,9.74,0,0,1-1.25,5l-.5-.24a10.41,10.41,0,0,0,1.09-4.76,9.76,9.76,0,0,0-2.59-6.71,16.41,16.41,0,0,0-7.17-4.42,32.57,32.57,0,0,0-10.42-1.54q-7.1,0-11.47,2.46a7.77,7.77,0,0,0-4.37,7.13,6.84,6.84,0,0,0,2.29,5.21,18.85,18.85,0,0,0,5.71,3.54q3.42,1.42,9.42,3.34a127.71,127.71,0,0,1,12,4.46,23,23,0,0,1,7.8,5.58,12.64,12.64,0,0,1,3.21,8.8,14.47,14.47,0,0,1-3.71,10.09,22.59,22.59,0,0,1-10,6.13,46.16,46.16,0,0,1-14.18,2A44.92,44.92,0,0,1,160.76,252.15Z"/><path class="cls-1" d="M210,229.61l-1.56-.7a69.86,69.86,0,0,0,5.5-32.36,68.61,68.61,0,0,0-23-47A66.52,66.52,0,0,0,107,145.88l-1-1.4a68.22,68.22,0,0,1,86.05,3.76,70.37,70.37,0,0,1,23.61,48.19A71.64,71.64,0,0,1,210,229.61Z"/></svg>