<svg xmlns="http://www.w3.org/2000/svg" width="96" height="96" viewBox="0 0 96 96">
  <g id="Group_48" data-name="Group 48" transform="translate(-112 -1384)">
    <path id="Path_208" data-name="Path 208" d="M48,0A48,48,0,1,1,0,48,48,48,0,0,1,48,0Z" transform="translate(112 1384)" fill="#ce963b"/>
    <path id="camera-solid" d="M47,42.281V68.719a4.407,4.407,0,0,1-4.406,4.406H4.406A4.407,4.407,0,0,1,0,68.719V42.281a4.407,4.407,0,0,1,4.406-4.406h8.078l1.129-3.02A4.4,4.4,0,0,1,17.735,32H29.256a4.4,4.4,0,0,1,4.122,2.855l1.138,3.02h8.078A4.407,4.407,0,0,1,47,42.281ZM34.516,55.5A11.016,11.016,0,1,0,23.5,66.516,11.024,11.024,0,0,0,34.516,55.5Zm-2.938,0A8.078,8.078,0,1,1,23.5,47.422,8.09,8.09,0,0,1,31.578,55.5Z" transform="translate(137 1377.125)" fill="none" stroke="#fff" stroke-width="3"/>
  </g>
</svg>
